# xmcd CD database file
#
# Track frame offsets:
#	187
#	14535
#	34157
#	47897
#	63452
#	79070
#	92577
#	105972
#	123442
#	146322
#	164922
#	181255
#	196275
#	217207
#	231147
#	248410
#	262987
#
# Disc length: 3706 seconds
#
# Revision: 0
# Processed by: cddbd v1.5.1PL0 Copyright (c) Steve Scherf et al.
# Submitted via: CDex 1.51
#
DISCID=e80e7811
DTITLE=Louis Armstrong - Louis Armstrong Best Selection
DYEAR=1900
DGENRE=Jazz
TTITLE0=That's My Home
TTITLE1=<Medley>
TTITLE2=I Gotta Right To Sing The Blues
TTITLE3=Basin Street Blues
TTITLE4=Sugar
TTITLE5=Do You Know What It Means To Miss New Orleans
TTITLE6=Mahogany Hall Stomp
TTITLE7=Ain't Misbehavin'
TTITLE8=Rockin' Chair
TTITLE9=Back O' Town Blues
TTITLE10=Pennies From Heaven
TTITLE11=St.Louis  Blues
TTITLE12=On The Sunny Side Of The Street
TTITLE13=I Can't Give You Anything But Love
TTITLE14=Royal Garden Blues
TTITLE15=Someday You'll Be Sorry
TTITLE16=A Song Was Born
EXTD=
EXTT0=
EXTT1=
EXTT2=
EXTT3=
EXTT4=
EXTT5=
EXTT6=
EXTT7=
EXTT8=
EXTT9=
EXTT10=
EXTT11=
EXTT12=
EXTT13=
EXTT14=
EXTT15=
EXTT16=
PLAYORDER=
